<svg xmlns="http://www.w3.org/2000/svg" width="16.269" height="15.251" viewBox="0 0 16.269 15.251"><defs><style>.a{fill:#00959c;}</style></defs><g transform="translate(29.452)"><g transform="translate(-29.452)"><path class="a" d="M8.967,16.126a.512.512,0,0,0-.418-.108L.415,17.544a.507.507,0,0,0-.415.5V29.228a.508.508,0,0,0,.415.5l8.134,1.525a.486.486,0,0,0,.094.009.508.508,0,0,0,.508-.508V16.518A.507.507,0,0,0,8.967,16.126ZM8.134,30.14,1.017,28.806V18.465l7.118-1.334Z" transform="translate(0 -16.01)"/><g transform="translate(8.134 2.033)"><path class="a" d="M263.626,79.99h-7.118a.508.508,0,1,0,0,1.017h6.609v9.151h-6.609a.508.508,0,1,0,0,1.017h7.118a.509.509,0,0,0,.508-.508V80.5A.509.509,0,0,0,263.626,79.99Z" transform="translate(-256 -79.99)"/></g><g transform="translate(8.134 4.067)"><path class="a" d="M258.542,143.99h-2.034a.508.508,0,1,0,0,1.017h2.034a.508.508,0,0,0,0-1.017Z" transform="translate(-256 -143.99)"/></g><g transform="translate(8.134 6.1)"><path class="a" d="M258.542,207.99h-2.034a.508.508,0,1,0,0,1.017h2.034a.508.508,0,0,0,0-1.017Z" transform="translate(-256 -207.99)"/></g><g transform="translate(8.134 8.134)"><path class="a" d="M258.542,271.99h-2.034a.508.508,0,1,0,0,1.017h2.034a.508.508,0,0,0,0-1.017Z" transform="translate(-256 -271.99)"/></g><g transform="translate(8.134 10.167)"><path class="a" d="M258.542,335.99h-2.034a.508.508,0,1,0,0,1.017h2.034a.508.508,0,0,0,0-1.017Z" transform="translate(-256 -335.99)"/></g><g transform="translate(12.202 4.067)"><path class="a" d="M385.525,143.99h-1.017a.508.508,0,1,0,0,1.017h1.017a.508.508,0,0,0,0-1.017Z" transform="translate(-384 -143.99)"/></g><g transform="translate(12.202 6.1)"><path class="a" d="M385.525,207.99h-1.017a.508.508,0,1,0,0,1.017h1.017a.508.508,0,0,0,0-1.017Z" transform="translate(-384 -207.99)"/></g><g transform="translate(12.202 8.134)"><path class="a" d="M385.525,271.99h-1.017a.508.508,0,1,0,0,1.017h1.017a.508.508,0,0,0,0-1.017Z" transform="translate(-384 -271.99)"/></g><g transform="translate(12.202 10.167)"><path class="a" d="M385.525,335.99h-1.017a.508.508,0,1,0,0,1.017h1.017a.508.508,0,0,0,0-1.017Z" transform="translate(-384 -335.99)"/></g><g transform="translate(2.542 5.083)"><path class="a" d="M84.455,180.225,80.9,176.158a.508.508,0,0,0-.766.669l3.559,4.067a.508.508,0,0,0,.766-.669Z" transform="translate(-80.004 -175.984)"/></g><g transform="translate(2.542 4.575)"><path class="a" d="M84.379,160.1a.508.508,0,0,0-.714.088l-3.559,4.576a.509.509,0,0,0,.8.625l3.559-4.576A.508.508,0,0,0,84.379,160.1Z" transform="translate(-79.999 -159.992)"/></g></g></g></svg>