<svg xmlns="http://www.w3.org/2000/svg" width="27.388" height="27.824" viewBox="0 0 27.388 27.824"><defs><style>.a{opacity:0.483;}.b{fill:#00959c;}</style></defs><g class="a" transform="translate(-0.977)"><g transform="translate(0.977)"><path class="b" d="M40.714,57.454l-.427,2.535a.924.924,0,0,0,1.34.974l2.28-1.19,2.28,1.19a.925.925,0,0,0,1.341-.974L47.1,57.455l1.836-1.8a.925.925,0,0,0-.512-1.576L45.88,53.7l-1.146-2.3a.925.925,0,0,0-1.657,0l-1.144,2.3-2.544.377a.925.925,0,0,0-.512,1.576Z" transform="translate(-30.213 -39.542)"/><path class="b" d="M25.6,2.958H22.69V1.342A1.342,1.342,0,0,0,21.347,0h-.213a1.342,1.342,0,0,0-1.342,1.342V2.958H9.516V1.342A1.342,1.342,0,0,0,8.174,0H7.961A1.342,1.342,0,0,0,6.618,1.342V2.958H3.74A2.766,2.766,0,0,0,.977,5.721v19.34A2.767,2.767,0,0,0,3.74,27.824H25.6a2.767,2.767,0,0,0,2.763-2.763V5.721A2.767,2.767,0,0,0,25.6,2.958ZM25.242,24.7H4.1V9.645H25.242Z" transform="translate(-0.977)"/></g></g></svg>