<svg xmlns="http://www.w3.org/2000/svg" width="15.251" height="15.252" viewBox="0 0 15.251 15.252"><defs><style>.a{fill:#00959c;}</style></defs><path class="a" d="M11.711,19.406a.317.317,0,0,1-.312-.379l.449-2.246a.311.311,0,0,1,.087-.163l4.943-4.943a.955.955,0,0,1,1.348,0l.9.9a.954.954,0,0,1,0,1.348l-4.943,4.943a.316.316,0,0,1-.163.087l-2.246.449A.337.337,0,0,1,11.711,19.406ZM12.454,17l-.337,1.685,1.685-.337,4.875-4.875a.318.318,0,0,0,0-.449l-.9-.9a.318.318,0,0,0-.449,0Zm1.5,1.641h.006Z" transform="translate(-4.153 -4.154)"/><path class="a" d="M6.037,14.439H1.589A1.59,1.59,0,0,1,0,12.85V4.589A1.59,1.59,0,0,1,1.589,3H2.86a.318.318,0,0,1,0,.635H1.589a.954.954,0,0,0-.953.953V12.85a.954.954,0,0,0,.953.953H6.037a.318.318,0,0,1,0,.635Z" transform="translate(0 -1.094)"/><path class="a" d="M14.86,8.719a.318.318,0,0,1-.318-.318V4.589a.954.954,0,0,0-.953-.953H12.318a.318.318,0,0,1,0-.635h1.271a1.59,1.59,0,0,1,1.589,1.589V8.4A.318.318,0,0,1,14.86,8.719Z" transform="translate(-4.374 -1.094)"/><path class="a" d="M8.766,3.813H4.953A.954.954,0,0,1,4,2.86V1.589a.318.318,0,0,1,.318-.318H5.3a1.589,1.589,0,0,1,3.114,0H9.4a.318.318,0,0,1,.318.318V2.86A.954.954,0,0,1,8.766,3.813ZM4.635,1.906V2.86a.319.319,0,0,0,.318.318H8.766a.319.319,0,0,0,.318-.318V1.906H8.131a.318.318,0,0,1-.318-.318.953.953,0,1,0-1.906,0,.318.318,0,0,1-.318.318Z" transform="translate(-1.458)"/><path class="a" d="M9.673,8.635H3.318a.318.318,0,1,1,0-.635H9.673a.318.318,0,1,1,0,.635Z" transform="translate(-1.094 -2.916)"/><path class="a" d="M9.673,11.635H3.318a.318.318,0,1,1,0-.635H9.673a.318.318,0,1,1,0,.635Z" transform="translate(-1.094 -4.01)"/><path class="a" d="M9.673,14.635H3.318a.318.318,0,1,1,0-.635H9.673a.318.318,0,1,1,0,.635Z" transform="translate(-1.094 -5.103)"/></svg>