<svg xmlns="http://www.w3.org/2000/svg" width="27" height="27" viewBox="0 0 27 27"><defs><style>.a{fill:#00959c;}.b{fill:#ff5b22;}.c{fill:#fff;font-size:7px;font-family:OpenSans-Bold, Open Sans;font-weight:700;}</style></defs><g transform="translate(4.5 3.375)"><path class="a" d="M9,0A2.25,2.25,0,0,0,6.75,2.25v.384A6.753,6.753,0,0,0,2.25,9v5.625H1.125a1.125,1.125,0,0,0,0,2.25h15.75a1.125,1.125,0,0,0,0-2.25H15.75V9a6.753,6.753,0,0,0-4.5-6.366V2.25A2.25,2.25,0,0,0,9,0Z"/><path class="a" d="M2.25,2.25A2.25,2.25,0,0,1,0,0H4.5A2.25,2.25,0,0,1,2.25,2.25Z" transform="translate(6.75 18)"/></g><path class="b" d="M5.5,0A5.5,5.5,0,1,1,0,5.5,5.5,5.5,0,0,1,5.5,0Z" transform="translate(14 5)"/><text class="c" transform="translate(18 13)"><tspan x="0" y="0">2</tspan></text></svg>