<svg xmlns="http://www.w3.org/2000/svg" width="16.529" height="14.463" viewBox="0 0 16.529 14.463"><defs><style>.a{fill:#fff;}</style></defs><g transform="translate(0 -38.25)"><g transform="translate(0 38.25)"><g transform="translate(0 0)"><path class="a" d="M8.958,48.705a.516.516,0,1,0,.73.73l3.563-3.564a.6.6,0,0,0,0-.782L9.688,41.526a.516.516,0,1,0-.73.73l2.708,2.708H.517A.517.517,0,0,0,.517,46h11.15Zm5.5-10.455H4.132a2.066,2.066,0,0,0-2.066,2.066v2.066H3.1V40.316a1.033,1.033,0,0,1,1.033-1.033h10.33A1.033,1.033,0,0,1,15.5,40.316v10.33a1.033,1.033,0,0,1-1.033,1.033H4.132A1.033,1.033,0,0,1,3.1,50.647V48.58H2.066v2.066a2.066,2.066,0,0,0,2.066,2.066h10.33a2.066,2.066,0,0,0,2.066-2.066V40.316A2.066,2.066,0,0,0,14.463,38.25Z" transform="translate(0 -38.25)"/></g></g></g></svg>