<svg xmlns="http://www.w3.org/2000/svg" width="12.204" height="15.252" viewBox="0 0 12.204 15.252"><defs><style>.a{fill:#00959c;}</style></defs><path class="a" d="M11.949,0H2.8L2.784,0a.248.248,0,0,0-.069.014L2.694.024a.256.256,0,0,0-.076.051L.075,2.617a.25.25,0,0,0-.051.074c0,.008-.006.016-.008.024A.239.239,0,0,0,0,2.781c0,.006,0,.01,0,.016V15a.254.254,0,0,0,.254.254h11.7A.254.254,0,0,0,12.2,15V.254A.254.254,0,0,0,11.949,0ZM2.544.868V2.542H.87ZM11.7,14.744H.51V3.05H2.8A.254.254,0,0,0,3.052,2.8V.508H11.7Zm0,0" transform="translate(0)"/><path class="a" d="M40.063,120.763V128.9a.763.763,0,0,0,.763.763h8.134a.763.763,0,0,0,.763-.763v-8.134a.763.763,0,0,0-.763-.763H40.825A.763.763,0,0,0,40.063,120.763Zm1.525,8.389h-.763a.254.254,0,0,1-.254-.254v-.763h1.017Zm0-1.525H40.571v-1.017h1.017Zm0-1.525H40.571v-1.017h1.017Zm0-1.525H40.571v-1.017h1.017Zm0-1.525H40.571v-1.017h1.017Zm5.084-2.542h2.288a.254.254,0,0,1,.254.254v.763H46.672Zm0,1.525h2.542v1.017H46.672Zm0,1.525h2.542v1.017H46.672Zm0,1.525h2.542V126.1H46.672Zm0,1.525h2.542v1.017H46.672Zm0,1.525h2.542v.763a.254.254,0,0,1-.254.254H46.672ZM42.1,120.508h4.067v1.017H42.1Zm0,1.525h4.067v1.017H42.1Zm0,1.525h4.067v1.017H42.1Zm0,1.525h4.067V126.1H42.1Zm0,1.525h4.067v1.017H42.1Zm0,1.525h4.067v1.017H42.1Zm-.508-6.609H40.571v-.763a.254.254,0,0,1,.254-.254h.763Zm0,0" transform="translate(-38.79 -116.187)"/><path class="a" d="M136.063,80H138.1v.508h-2.034Zm0,0" transform="translate(-131.739 -77.458)"/><path class="a" d="M216.063,80h1.017v.508h-1.017Zm0,0" transform="translate(-209.197 -77.458)"/></svg>