<svg xmlns="http://www.w3.org/2000/svg" width="65.707" height="36.632" viewBox="0 0 65.707 36.632"><defs><style>.a{fill:#00959c;}</style></defs><g transform="translate(0.053)"><g transform="translate(-0.053)"><g transform="translate(0 19.988)"><path class="a" d="M6.6,278.677H-.042v-2.9H6.6a.725.725,0,0,0,.724-.725.391.391,0,0,0-.213-.4,1.246,1.246,0,0,0-.511-.094H3.578a3.5,3.5,0,0,1-1.415-.287,3.616,3.616,0,0,1-1.156-.782A3.653,3.653,0,0,1,.233,269.5a3.594,3.594,0,0,1,3.344-2.2H9.469v2.889H3.578a.726.726,0,0,0-.722.724.734.734,0,0,0,.213.527.7.7,0,0,0,.511.223H6.6a3.96,3.96,0,0,1,1.405.249,3.593,3.593,0,0,1,1.155.693,3.278,3.278,0,0,1,1.064,2.448,3.488,3.488,0,0,1-.294,1.415,3.822,3.822,0,0,1-.777,1.156A3.619,3.619,0,0,1,8,278.4a3.561,3.561,0,0,1-1.4.277Z" transform="translate(0.053 -262.249)"/><path class="a" d="M129.334,215.323a1.873,1.873,0,0,1-.154.756,1.967,1.967,0,0,1-.422.612,2.061,2.061,0,0,1-.623.415,1.954,1.954,0,0,1-2.556-1.03,1.911,1.911,0,0,1,0-1.5,1.942,1.942,0,0,1,1.03-1.03,1.967,1.967,0,0,1,1.523,0,2.053,2.053,0,0,1,.623.417,1.933,1.933,0,0,1,.421.616A1.9,1.9,0,0,1,129.334,215.323Zm-.5,14.5h-2.928V218.414h2.928Z" transform="translate(-113.673 -213.392)"/><path class="a" d="M192.358,278.678h-6.643v-2.9h6.643a.726.726,0,0,0,.723-.725.391.391,0,0,0-.213-.4,1.236,1.236,0,0,0-.51-.094h-3.024a3.506,3.506,0,0,1-1.416-.288,3.616,3.616,0,0,1-1.153-.784,3.653,3.653,0,0,1-.772-3.987,3.594,3.594,0,0,1,3.338-2.2h5.887v2.889h-5.884a.734.734,0,0,0-.509,1.251.69.69,0,0,0,.511.218h3.024a3.953,3.953,0,0,1,1.405.249,3.559,3.559,0,0,1,1.148.694,3.278,3.278,0,0,1,1.07,2.445,3.466,3.466,0,0,1-.288,1.411,3.761,3.761,0,0,1-.777,1.156,3.592,3.592,0,0,1-1.155.777A3.55,3.55,0,0,1,192.358,278.678Z" transform="translate(-168.307 -262.25)"/><path class="a" d="M320.061,265.075l-2.129,2.139a2.881,2.881,0,0,0-.437-.8,2.922,2.922,0,0,0-.623-.6,2.717,2.717,0,0,0-.749-.375,2.777,2.777,0,0,0-.831-.127,2.622,2.622,0,0,0-1.124.245,2.733,2.733,0,0,0-.911.688,3.3,3.3,0,0,0-.613,1.049,3.855,3.855,0,0,0-.23,1.341,2.81,2.81,0,0,0,.224,1.117,2.914,2.914,0,0,0,.613.916,2.808,2.808,0,0,0,.915.617,2.919,2.919,0,0,0,2.683-.229,2.734,2.734,0,0,0,.618-.533,2.781,2.781,0,0,0,.441-.693l2.129,2.132A5.719,5.719,0,0,1,319.1,273a5.925,5.925,0,0,1-1.139.777,5.69,5.69,0,0,1-1.288.481,5.855,5.855,0,0,1-1.386.166,5.706,5.706,0,0,1-2.262-.453,5.831,5.831,0,0,1-3.1-3.083,5.611,5.611,0,0,1-.462-2.256,6.508,6.508,0,0,1,.462-2.449,6.321,6.321,0,0,1,1.251-1.985,5.918,5.918,0,0,1,1.848-1.337,5.332,5.332,0,0,1,2.266-.491,5.476,5.476,0,0,1,1.4.182,5.732,5.732,0,0,1,1.31.526,5.626,5.626,0,0,1,1.16.85A5.3,5.3,0,0,1,320.061,265.075Z" transform="translate(-280.468 -257.782)"/><path class="a" d="M445.2,268.407a6.139,6.139,0,0,1-.463,2.38,5.947,5.947,0,0,1-1.245,1.905,5.777,5.777,0,0,1-9.488-1.9,6.156,6.156,0,0,1-.462-2.38,6.247,6.247,0,0,1,.462-2.405,5.877,5.877,0,0,1,1.26-1.915,5.806,5.806,0,0,1,1.848-1.26,5.643,5.643,0,0,1,2.263-.462,5.981,5.981,0,0,1,2.273.434,5.483,5.483,0,0,1,1.849,1.224,5.786,5.786,0,0,1,1.24,1.907A6.455,6.455,0,0,1,445.2,268.407Zm-2.929,0a3.393,3.393,0,0,0-.231-1.271,3.038,3.038,0,0,0-.624-.98,2.688,2.688,0,0,0-.925-.627,3,3,0,0,0-2.248,0,2.638,2.638,0,0,0-.911.627,2.974,2.974,0,0,0-.612.98,3.447,3.447,0,0,0-.225,1.271,3.3,3.3,0,0,0,.225,1.225,3.055,3.055,0,0,0,.612.98,2.88,2.88,0,0,0,.915.656,2.674,2.674,0,0,0,1.124.24,2.858,2.858,0,0,0,1.124-.224,2.787,2.787,0,0,0,.925-.628,2.962,2.962,0,0,0,.624-.98,3.389,3.389,0,0,0,.232-1.267Z" transform="translate(-392.925 -257.781)"/><path class="a" d="M588.652,228.765a6.342,6.342,0,0,1-.463,2.451,5.807,5.807,0,0,1-1.245,1.9,5.6,5.6,0,0,1-1.849,1.23,5.922,5.922,0,0,1-2.272.436,5.756,5.756,0,0,1-4.116-1.694,5.881,5.881,0,0,1-1.251-1.9,6.274,6.274,0,0,1-.46-2.428V218.63h2.918v5.323a2.635,2.635,0,0,1,.57-.533,3.343,3.343,0,0,1,.724-.382,4.765,4.765,0,0,1,.808-.231,4.27,4.27,0,0,1,.809-.081,5.737,5.737,0,0,1,2.272.452,5.661,5.661,0,0,1,1.849,1.262,6.022,6.022,0,0,1,1.245,1.911A6.236,6.236,0,0,1,588.652,228.765Zm-2.928,0a3.265,3.265,0,0,0-.231-1.229,3.067,3.067,0,0,0-.622-.984,2.837,2.837,0,0,0-.924-.649,2.715,2.715,0,0,0-1.124-.231,2.49,2.49,0,0,0-1.124.261,3.074,3.074,0,0,0-.925.693,3.23,3.23,0,0,0-.617.989,3.089,3.089,0,0,0-.224,1.155,3.3,3.3,0,0,0,.225,1.229,3.055,3.055,0,0,0,.617.98,2.961,2.961,0,0,0,.924.656,2.747,2.747,0,0,0,2.248,0,2.959,2.959,0,0,0,.925-.656,3.1,3.1,0,0,0,.621-.98,3.234,3.234,0,0,0,.237-1.23Z" transform="translate(-522.945 -218.139)"/></g><path class="a" d="M252.139,0H239.195a2.285,2.285,0,0,0-2.285,2.285v10.66a2.285,2.285,0,0,0,2.285,2.285h.4l-.392,2.942a.761.761,0,0,0,1.294.639L243,16.3V8.377a3.812,3.812,0,0,1,3.808-3.808h7.615V2.285A2.285,2.285,0,0,0,252.139,0Z" transform="translate(-214.714 0)"/><path class="a" d="M329.623,65h-9.138a2.285,2.285,0,0,0-2.285,2.288V74.9a2.285,2.285,0,0,0,2.285,2.285h2.328l4.9,2.937a.762.762,0,0,0,1.142-.778l-.358-2.154h1.132a2.285,2.285,0,0,0,2.284-2.285V67.288A2.285,2.285,0,0,0,329.623,65Zm-1.94,8.01a2.045,2.045,0,0,1-.422.627,1.947,1.947,0,0,1-1.386.572h-.033v.863H324.27v-.863h-2V72.64h3.607a.394.394,0,0,0,.393-.393.214.214,0,0,0-.115-.22.673.673,0,0,0-.281-.052h-1.64a1.9,1.9,0,0,1-.768-.156,1.949,1.949,0,0,1-.628-.425,1.981,1.981,0,0,1-.42-2.165,1.951,1.951,0,0,1,1.044-1.044,1.929,1.929,0,0,1,.771-.152h.038V67.17h1.569v.864h1.592V69.6h-3.2a.393.393,0,0,0-.392.392.4.4,0,0,0,.115.287.375.375,0,0,0,.281.121h1.642a2.12,2.12,0,0,1,.763.136,1.924,1.924,0,0,1,.628.375,1.78,1.78,0,0,1,.578,1.329,1.893,1.893,0,0,1-.164.771Z" transform="translate(-288.39 -58.912)"/></g></g></svg>