<svg xmlns="http://www.w3.org/2000/svg" width="21.389" height="27.883" viewBox="0 0 21.389 27.883"><defs><style>.a{opacity:0.483;}.a{fill:#00959c;}</style></defs><g transform="translate(0 0.12)"><g transform="translate(0 -0.12)"><g transform="translate(0 0)"><rect class="a" width="6.62" height="6.62" rx="1" transform="translate(8.878)"/><rect class="a" width="7.49" height="7.195" rx="1" transform="translate(0 6.311)"/><rect class="a" width="4.755" height="4.572" rx="1" transform="translate(1.627 16.536)"/><rect class="a" width="5.442" height="5.26" rx="1" transform="translate(7.013 22.623)"/><rect class="a" width="3.745" height="3.633" rx="1" transform="translate(17.644 4.208)"/><g transform="translate(9.346 9.284)"><path class="a" d="M161.872,169.4a5,5,0,0,1-1.632-1.015.806.806,0,0,1-.32-.625.7.7,0,0,1,.213-.5.678.678,0,0,1,.5-.221.629.629,0,0,1,.442.168,4.239,4.239,0,0,0,1.259.829,3.831,3.831,0,0,0,1.471.267,2.861,2.861,0,0,0,1.625-.442,1.3,1.3,0,0,0,.663-1.11,1.426,1.426,0,0,0-.663-1.227,5.956,5.956,0,0,0-1.975-.725,5.264,5.264,0,0,1-2.418-1.052,2.536,2.536,0,0,1-.846-2.028,2.689,2.689,0,0,1,.473-1.578,3.044,3.044,0,0,1,1.311-1.045,4.7,4.7,0,0,1,1.892-.366,5.181,5.181,0,0,1,1.784.305,3.77,3.77,0,0,1,1.358.808.874.874,0,0,1,.351.656.684.684,0,0,1-.206.488.663.663,0,0,1-.5.213.505.505,0,0,1-.351-.122,3.169,3.169,0,0,0-1.1-.671,3.685,3.685,0,0,0-1.344-.275,2.8,2.8,0,0,0-1.625.42,1.35,1.35,0,0,0,0,2.247,5.668,5.668,0,0,0,1.792.671,9.507,9.507,0,0,1,1.945.61,2.74,2.74,0,0,1,1.169.977,2.948,2.948,0,0,1,.412,1.632,2.617,2.617,0,0,1-.5,1.571,3.273,3.273,0,0,1-1.35,1.068,4.562,4.562,0,0,1-1.878.381A5.705,5.705,0,0,1,161.872,169.4Z" transform="translate(-159.92 -158.738)"/></g></g></g></g></svg>