<svg xmlns="http://www.w3.org/2000/svg" width="16.622" height="20.416" viewBox="0 0 16.622 20.416"><defs><style>.a{fill:#00959c;}</style></defs><path class="a" d="M119.528,297.953c0-.339-.235-.541-.65-.541a1.439,1.439,0,0,0-.344.033v1.088a1.306,1.306,0,0,0,.279.021C119.254,298.554,119.528,298.33,119.528,297.953Z" transform="translate(-115.411 -284.818)"/><path class="a" d="M194.181,297.681a1.718,1.718,0,0,0-.377.033v2.409a1.509,1.509,0,0,0,.29.017,1.142,1.142,0,0,0,1.246-1.289A1.057,1.057,0,0,0,194.181,297.681Z" transform="translate(-187.495 -285.076)"/><path class="a" d="M56.267,0h-8.2a2.176,2.176,0,0,0-2.173,2.173v8.035h-.212a.876.876,0,0,0-.876.876v5.31a.875.875,0,0,0,.876.876h.212v.974a2.175,2.175,0,0,0,2.173,2.173H59.255a2.175,2.175,0,0,0,2.172-2.173V5.143ZM47.1,12.042a6.864,6.864,0,0,1,1.126-.076,1.766,1.766,0,0,1,1.126.295,1.077,1.077,0,0,1,.393.852,1.177,1.177,0,0,1-.339.874,1.708,1.708,0,0,1-1.2.388,2.157,2.157,0,0,1-.284-.016v1.317H47.1Zm12.152,7.044H48.067a.843.843,0,0,1-.842-.842V17.27h10.43a.875.875,0,0,0,.876-.876v-5.31a.875.875,0,0,0-.876-.876H47.225V2.173a.843.843,0,0,1,.842-.841l7.7-.008V4.171a1.507,1.507,0,0,0,1.507,1.507l2.789-.008L60.1,18.243A.842.842,0,0,1,59.255,19.086ZM50.28,15.659V12.042a7.5,7.5,0,0,1,1.126-.076,2.371,2.371,0,0,1,1.508.393,1.63,1.63,0,0,1,.623,1.388,1.867,1.867,0,0,1-.612,1.492,2.643,2.643,0,0,1-1.7.475A7.209,7.209,0,0,1,50.28,15.659Zm5.963-2.142V14.2H54.92v1.481h-.836V11.993h2.251v.683H54.92v.842Z" transform="translate(-44.806)"/></svg>