<svg width="21" height="21" viewBox="0 0 21 21" fill="none" xmlns="http://www.w3.org/2000/svg">
<path fill-rule="evenodd" clip-rule="evenodd" d="M8.51703 0C3.81321 0 0 3.8131 0 8.51695C0 13.2208 3.81321 17.0342 8.51703 17.0342C10.4706 17.0342 12.2704 16.3766 13.7074 15.2705L19.1132 20.6762C19.5448 21.1079 20.2447 21.1079 20.6763 20.6762C21.1079 20.2447 21.1079 19.5448 20.6763 19.1133L15.2704 13.7073C16.3764 12.2704 17.0341 10.4706 17.0341 8.51695C17.0341 3.8131 13.2209 0 8.51703 0ZM2.21053 8.51695C2.21053 5.03413 5.03404 2.21053 8.51703 2.21053C12 2.21053 14.8235 5.03413 14.8235 8.51695C14.8235 12 12 14.8236 8.51703 14.8236C5.03404 14.8236 2.21053 12 2.21053 8.51695Z" fill="black"/>
</svg>
