<svg xmlns="http://www.w3.org/2000/svg" width="27.39" height="27.385" viewBox="0 0 27.39 27.385"><defs><style>.a{opacity:0.483;}.b{fill:#00959c;}</style></defs><g class="a" transform="translate(-0.001 -4.737)"><path class="b" d="M3.035,21.434a11.251,11.251,0,0,0,1.006,2.389L2.827,25.355a1.257,1.257,0,0,0,.094,1.666l2.092,2.092a1.252,1.252,0,0,0,1.666.094L8.2,28a11.058,11.058,0,0,0,2.484,1.051l.228,1.958a1.254,1.254,0,0,0,1.244,1.11h2.96a1.254,1.254,0,0,0,1.244-1.11l.218-1.889a11.185,11.185,0,0,0,2.662-1.076l1.472,1.165a1.257,1.257,0,0,0,1.666-.094l2.092-2.092a1.252,1.252,0,0,0,.094-1.666L23.42,23.907a10.925,10.925,0,0,0,1.1-2.618l1.765-.2a1.254,1.254,0,0,0,1.11-1.244v-2.96a1.254,1.254,0,0,0-1.11-1.244l-1.74-.2a11,11,0,0,0-1.051-2.588l1.071-1.353a1.257,1.257,0,0,0-.094-1.666L22.379,7.741a1.252,1.252,0,0,0-1.666-.094L19.4,8.688a11.033,11.033,0,0,0-2.722-1.14l-.2-1.7a1.254,1.254,0,0,0-1.244-1.11h-2.96a1.254,1.254,0,0,0-1.244,1.11l-.2,1.7a10.987,10.987,0,0,0-2.791,1.18L6.679,7.647a1.257,1.257,0,0,0-1.666.094L2.921,9.833A1.252,1.252,0,0,0,2.827,11.5l1.14,1.443a10.784,10.784,0,0,0-1.031,2.613l-1.824.208A1.254,1.254,0,0,0,0,17.007v2.96a1.254,1.254,0,0,0,1.11,1.244Zm10.723-8.006A4.893,4.893,0,1,1,8.865,18.32,4.9,4.9,0,0,1,13.758,13.427Z"/></g></svg>